<svg viewBox="0 0 24 24" fill="#5ec8ff" xmlns="http://www.w3.org/2000/svg">
<path d="M12 .5a12 12 0 00-3.79 23.39c.6.11.82-.26.82-.58v-2.02c-3.34.73-4.04-1.61-4.04-1.61-.55-1.41-1.35-1.78-1.35-1.78-1.1-.75.08-.73.08-.73 1.22.09 1.86 1.25 1.86 1.25 1.08 1.85 2.83 1.32 3.52 1.01.11-.78.42-1.32.76-1.62-2.66-.3-5.46-1.33-5.46-5.93 0-1.31.47-2.38 1.24-3.22-.12-.3-.54-1.51.12-3.15 0 0 1.01-.32 3.31 1.23.96-.27 1.99-.41 3.01-.41 1.02 0 2.05.14 3.01.41 2.29-1.55 3.3-1.23 3.3-1.23.66 1.64.24 2.85.12 3.15.77.84 1.24 1.9 1.24 3.22 0 4.61-2.8 5.63-5.47 5.93.43.37.81 1.1.81 2.22v3.29c0 .32.21.7.83.58A12 12 0 0012 .5z"/>
</svg>