<svg xmlns="http://www.w3.org/2000/svg" width="800" height="480" viewBox="0 0 24 14">
  <rect width="24" height="14" rx="1.5" fill="#102036" stroke="#1f2a37"/>
  <path fill="#8ec3ff" d="M12 1.2c-3.87 0-7 3.13-7 7 0 3.09 2.01 5.71 4.8 6.63.35.06.48-.15.48-.33 0-.16-.01-.68-.01-1.23-1.95.36-2.46-.48-2.62-.92-.08-.2-.43-.92-.74-1.11-.25-.14-.6-.49-.01-.5.56-.01.96.52 1.1.74.64 1.07 1.66.77 2.07.59.06-.46.25-.77.46-.95-1.73-.2-3.55-.87-3.55-3.87 0-.86.31-1.57.82-2.13-.08-.2-.36-1.02.08-2.13 0 0 .66-.21 2.17.81.63-.18 1.31-.27 1.98-.27.67 0 1.35.09 1.98.27 1.51-1.02 2.17-.81 2.17-.81.44 1.11.16 1.93.08 2.13.51.56.82 1.27.82 2.13 0 3.01-1.82 3.67-3.56 3.86.26.22.49.65.49 1.31 0 .95-.01 1.71-.01 1.94 0 .18.13.39.48.33A7.01 7.01 0 0019 8.2c0-3.87-3.13-7-7-7z"/>
</svg>